<svg width="930" height="242" viewBox="0 0 930 242" fill="none" xmlns="http://www.w3.org/2000/svg">
<path d="M18.2045 224H62.4886V156.091H99.7159C147.886 156.091 175.909 127.352 175.909 85.5227C175.909 43.8977 148.398 14.5454 100.841 14.5454H18.2045V224ZM62.4886 120.602V50.75H92.3523C117.92 50.75 130.295 64.6591 130.295 85.5227C130.295 106.284 117.92 120.602 92.5568 120.602H62.4886ZM286.701 227.068C334.36 227.068 364.019 194.443 364.019 146.068C364.019 97.3864 334.36 64.8636 286.701 64.8636C239.042 64.8636 209.383 97.3864 209.383 146.068C209.383 194.443 239.042 227.068 286.701 227.068ZM286.906 193.318C264.917 193.318 253.667 173.17 253.667 145.761C253.667 118.352 264.917 98.1023 286.906 98.1023C308.485 98.1023 319.735 118.352 319.735 145.761C319.735 173.17 308.485 193.318 286.906 193.318ZM406.749 224H450.317V174.091L462.078 160.693L504.931 224H555.965L494.703 134.92L552.999 66.9091H502.987L452.669 126.534H450.317V14.5454H406.749V224ZM653.896 227.068C692.76 227.068 718.941 208.148 725.078 179L684.782 176.341C680.385 188.307 669.135 194.545 654.612 194.545C632.828 194.545 619.021 180.125 619.021 156.705V156.602H725.998V144.636C725.998 91.25 693.68 64.8636 652.157 64.8636C605.93 64.8636 575.964 97.6932 575.964 146.17C575.964 195.977 605.521 227.068 653.896 227.068ZM619.021 129.602C619.941 111.705 633.544 97.3864 652.873 97.3864C671.794 97.3864 684.885 110.886 684.987 129.602H619.021ZM635.487 46.6591H666.271L697.464 0.125H657.169L635.487 46.6591ZM747.046 51.0568H811.171V224H854.944V51.0568H919.069V14.5454H747.046V51.0568Z" fill="#4F46E5"/>
<path d="M18.2045 224H8.20455V234H18.2045V224ZM62.4886 224V234H72.4886V224H62.4886ZM62.4886 156.091V146.091H52.4886V156.091H62.4886ZM18.2045 14.5454V4.54545H8.20455V14.5454H18.2045ZM62.4886 120.602H52.4886V130.602H62.4886V120.602ZM62.4886 50.75V40.75H52.4886V50.75H62.4886ZM18.2045 234H62.4886V214H18.2045V234ZM72.4886 224V156.091H52.4886V224H72.4886ZM62.4886 166.091H99.7159V146.091H62.4886V166.091ZM99.7159 166.091C125.79 166.091 147.507 158.281 162.775 143.732C178.08 129.148 185.909 108.733 185.909 85.5227H165.909C165.909 104.142 159.727 119.011 148.978 129.253C138.192 139.531 121.812 146.091 99.7159 146.091V166.091ZM185.909 85.5227C185.909 62.4659 178.244 41.9889 163.201 27.2757C148.162 12.5669 126.703 4.54545 100.841 4.54545V24.5454C122.536 24.5454 138.61 31.2001 149.217 41.5737C159.818 51.9429 165.909 66.9546 165.909 85.5227H185.909ZM100.841 4.54545H18.2045V24.5454H100.841V4.54545ZM8.20455 14.5454V224H28.2045V14.5454H8.20455ZM72.4886 120.602V50.75H52.4886V120.602H72.4886ZM62.4886 60.75H92.3523V40.75H62.4886V60.75ZM92.3523 60.75C103.373 60.75 110.057 63.7244 113.959 67.4995C117.827 71.242 120.295 77.061 120.295 85.5227H140.295C140.295 73.1208 136.576 61.5534 127.865 53.1255C119.188 44.7301 106.899 40.75 92.3523 40.75V60.75ZM120.295 85.5227C120.295 93.9297 117.827 99.8731 113.917 103.726C110.007 107.581 103.377 110.602 92.5568 110.602V130.602C107.1 130.602 119.34 126.465 127.958 117.97C136.577 109.474 140.295 97.8771 140.295 85.5227H120.295ZM92.5568 110.602H62.4886V130.602H92.5568V110.602ZM286.701 237.068C312.909 237.068 335.007 228.034 350.513 211.564C365.955 195.163 374.019 172.29 374.019 146.068H354.019C354.019 168.221 347.254 185.849 335.952 197.854C324.714 209.79 308.152 217.068 286.701 217.068V237.068ZM374.019 146.068C374.019 119.708 365.963 96.7803 350.516 80.3586C335.004 63.8671 312.9 54.8636 286.701 54.8636V74.8636C308.161 74.8636 324.717 82.1215 335.948 94.0618C347.246 106.072 354.019 123.747 354.019 146.068H374.019ZM286.701 54.8636C260.502 54.8636 238.399 63.8671 222.886 80.3586C207.439 96.7803 199.383 119.708 199.383 146.068H219.383C219.383 123.747 226.156 106.072 237.454 94.0618C248.685 82.1215 265.241 74.8636 286.701 74.8636V54.8636ZM199.383 146.068C199.383 172.29 207.448 195.163 222.889 211.564C238.395 228.034 260.493 237.068 286.701 237.068V217.068C265.25 217.068 248.689 209.79 237.451 197.854C226.148 185.849 219.383 168.221 219.383 146.068H199.383ZM286.906 183.318C279.5 183.318 274.235 180.166 270.398 174.327C266.27 168.045 263.667 158.298 263.667 145.761H243.667C243.667 160.634 246.689 174.665 253.683 185.31C260.969 196.396 272.323 203.318 286.906 203.318V183.318ZM263.667 145.761C263.667 133.225 266.27 123.446 270.405 117.133C274.253 111.261 279.521 108.102 286.906 108.102V88.1023C272.302 88.1023 260.951 95.0686 253.676 106.173C246.689 116.839 243.667 130.889 243.667 145.761H263.667ZM286.906 108.102C294.014 108.102 299.193 111.194 303.025 117.098C307.133 123.427 309.735 133.228 309.735 145.761H329.735C329.735 130.886 326.712 116.857 319.801 106.209C312.613 95.1353 301.377 88.1023 286.906 88.1023V108.102ZM309.735 145.761C309.735 158.295 307.133 168.064 303.032 174.362C299.211 180.232 294.035 183.318 286.906 183.318V203.318C301.356 203.318 312.595 196.33 319.793 185.274C326.712 174.647 329.735 160.636 329.735 145.761H309.735ZM406.749 224H396.749V234H406.749V224ZM450.317 224V234H460.317V224H450.317ZM450.317 174.091L442.802 167.494L440.317 170.324V174.091H450.317ZM462.078 160.693L470.36 155.088L463.103 144.368L454.563 154.096L462.078 160.693ZM504.931 224L496.649 229.606L499.624 234H504.931V224ZM555.965 224V234H574.978L564.204 218.334L555.965 224ZM494.703 134.92L487.111 128.413L482.106 134.251L486.464 140.587L494.703 134.92ZM552.999 66.9091L560.591 73.417L574.741 56.9091H552.999V66.9091ZM502.987 66.9091V56.9091H498.342L495.345 60.4597L502.987 66.9091ZM452.669 126.534V136.534H457.315L460.312 132.984L452.669 126.534ZM450.317 126.534H440.317V136.534H450.317V126.534ZM450.317 14.5454H460.317V4.54545H450.317V14.5454ZM406.749 14.5454V4.54545H396.749V14.5454H406.749ZM406.749 234H450.317V214H406.749V234ZM460.317 224V174.091H440.317V224H460.317ZM457.832 180.688L469.593 167.29L454.563 154.096L442.802 167.494L457.832 180.688ZM453.797 166.299L496.649 229.606L513.212 218.394L470.36 155.088L453.797 166.299ZM504.931 234H555.965V214H504.931V234ZM564.204 218.334L502.943 129.254L486.464 140.587L547.725 229.666L564.204 218.334ZM502.296 141.428L560.591 73.417L545.406 60.4012L487.111 128.413L502.296 141.428ZM552.999 56.9091H502.987V76.9091H552.999V56.9091ZM495.345 60.4597L445.027 120.085L460.312 132.984L510.63 73.3585L495.345 60.4597ZM452.669 116.534H450.317V136.534H452.669V116.534ZM460.317 126.534V14.5454H440.317V126.534H460.317ZM450.317 4.54545H406.749V24.5454H450.317V4.54545ZM396.749 14.5454V224H416.749V14.5454H396.749ZM725.078 179L734.863 181.06L737.238 169.781L725.736 169.022L725.078 179ZM684.782 176.341L685.441 166.363L677.977 165.87L675.396 172.891L684.782 176.341ZM619.021 156.602V146.602H609.021V156.602H619.021ZM725.998 156.602V166.602H735.998V156.602H725.998ZM619.021 129.602L609.034 129.089L608.494 139.602H619.021V129.602ZM684.987 129.602V139.602H695.042L694.987 129.548L684.987 129.602ZM635.487 46.6591L626.423 42.4357L619.795 56.6591H635.487V46.6591ZM666.271 46.6591V56.6591H671.607L674.577 52.2271L666.271 46.6591ZM697.464 0.125L705.771 5.69305L716.206 -9.875H697.464V0.125ZM657.169 0.125V-9.875H650.796L648.104 -4.0984L657.169 0.125ZM653.896 237.068C696.067 237.068 727.487 216.097 734.863 181.06L715.292 176.94C710.396 200.199 689.452 217.068 653.896 217.068V237.068ZM725.736 169.022L685.441 166.363L684.124 186.319L724.419 188.978L725.736 169.022ZM675.396 172.891C672.848 179.824 666.247 184.545 654.612 184.545V204.545C672.022 204.545 687.921 196.79 694.169 179.791L675.396 172.891ZM654.612 184.545C645.999 184.545 639.9 181.755 635.915 177.539C631.871 173.261 629.021 166.467 629.021 156.705H609.021C609.021 170.363 613.074 182.489 621.38 191.277C629.744 200.126 641.441 204.545 654.612 204.545V184.545ZM629.021 156.705V156.602H609.021V156.705H629.021ZM619.021 166.602H725.998V146.602H619.021V166.602ZM735.998 156.602V144.636H715.998V156.602H735.998ZM735.998 144.636C735.998 115.89 727.25 93.1889 711.72 77.659C696.226 62.1652 675.034 54.8636 652.157 54.8636V74.8636C670.804 74.8636 686.532 80.7553 697.578 91.8012C708.588 102.811 715.998 119.997 715.998 144.636H735.998ZM652.157 54.8636C626.564 54.8636 604.759 64.018 589.403 80.5275C574.115 96.9648 565.964 119.879 565.964 146.17H585.964C585.964 123.985 592.797 106.245 604.048 94.1486C615.232 82.124 631.524 74.8636 652.157 74.8636V54.8636ZM565.964 146.17C565.964 173.039 573.966 195.959 589.575 212.222C605.232 228.534 627.51 237.068 653.896 237.068V217.068C631.907 217.068 615.219 210.057 604.004 198.372C592.741 186.638 585.964 169.109 585.964 146.17H565.964ZM629.008 130.116C629.67 117.24 639.157 107.386 652.873 107.386V87.3864C627.931 87.3864 610.213 106.169 609.034 129.089L629.008 130.116ZM652.873 107.386C659.875 107.386 665.249 109.839 668.876 113.507C672.521 117.193 674.949 122.664 674.987 129.657L694.987 129.548C694.923 117.825 690.754 107.187 683.098 99.4447C675.424 91.684 664.792 87.3864 652.873 87.3864V107.386ZM684.987 119.602H619.021V139.602H684.987V119.602ZM635.487 56.6591H666.271V36.6591H635.487V56.6591ZM674.577 52.2271L705.771 5.69305L689.158 -5.44305L657.965 41.091L674.577 52.2271ZM697.464 -9.875H657.169V10.125H697.464V-9.875ZM648.104 -4.0984L626.423 42.4357L644.551 50.8825L666.233 4.3484L648.104 -4.0984ZM747.046 51.0568H737.046V61.0568H747.046V51.0568ZM811.171 51.0568H821.171V41.0568H811.171V51.0568ZM811.171 224H801.171V234H811.171V224ZM854.944 224V234H864.944V224H854.944ZM854.944 51.0568V41.0568H844.944V51.0568H854.944ZM919.069 51.0568V61.0568H929.069V51.0568H919.069ZM919.069 14.5454H929.069V4.54545H919.069V14.5454ZM747.046 14.5454V4.54545H737.046V14.5454H747.046ZM747.046 61.0568H811.171V41.0568H747.046V61.0568ZM801.171 51.0568V224H821.171V51.0568H801.171ZM811.171 234H854.944V214H811.171V234ZM864.944 224V51.0568H844.944V224H864.944ZM854.944 61.0568H919.069V41.0568H854.944V61.0568ZM929.069 51.0568V14.5454H909.069V51.0568H929.069ZM919.069 4.54545H747.046V24.5454H919.069V4.54545ZM737.046 14.5454V51.0568H757.046V14.5454H737.046Z" fill="#1F2937"/>
<circle cx="287" cy="147" r="95" fill="#1F2937"/>
<g filter="url(#filter0_d_74_19)">
<path d="M369.502 147C292.002 147 337.565 147 292.002 147C246.438 147 253.252 147 204.502 147C204.502 101.437 241.438 64.5005 287.002 64.5005C332.565 64.5005 369.502 101.437 369.502 147Z" fill="#4F46E5"/>
</g>
<path d="M204.498 147C281.998 147 236.435 147 281.998 147C327.562 147 320.748 147 369.498 147C369.498 192.563 332.562 229.5 286.998 229.5C241.435 229.5 204.498 192.563 204.498 147Z" fill="white"/>
<rect x="199.494" y="137" width="177.5" height="17.5" fill="#1F2937"/>
<circle cx="286.998" cy="147" r="25" fill="#1F2937"/>
<circle cx="286.998" cy="147" r="12.5" fill="white"/>
<defs>
<filter id="filter0_d_74_19" x="200.502" y="64.5005" width="173" height="90.5" filterUnits="userSpaceOnUse" color-interpolation-filters="sRGB">
<feFlood flood-opacity="0" result="BackgroundImageFix"/>
<feColorMatrix in="SourceAlpha" type="matrix" values="0 0 0 0 0 0 0 0 0 0 0 0 0 0 0 0 0 0 127 0" result="hardAlpha"/>
<feOffset dy="4"/>
<feGaussianBlur stdDeviation="2"/>
<feComposite in2="hardAlpha" operator="out"/>
<feColorMatrix type="matrix" values="0 0 0 0 0 0 0 0 0 0 0 0 0 0 0 0 0 0 0.25 0"/>
<feBlend mode="normal" in2="BackgroundImageFix" result="effect1_dropShadow_74_19"/>
<feBlend mode="normal" in="SourceGraphic" in2="effect1_dropShadow_74_19" result="shape"/>
</filter>
</defs>
</svg>
